<svg fill="#000000" viewBox="0 0 24 24" xmlns="http://www.w3.org/2000/svg">
  <path d="M12 .3a12 12 0 0 0-3.8 23.4c.6.1.8-.2.8-.6v-2.1c-3.3.7-4-1.6-4-1.6a3.2 3.2 0 0 0-1.3-1.7c-1.1-.7.1-.7.1-.7a2.6 2.6 0 0 1 1.9 1.2 2.6 2.6 0 0 0 3.5 1 2.6 2.6 0 0 1 .8-1.6c-2.6-.3-5.4-1.3-5.4-5.7a4.4 4.4 0 0 1 1.2-3c-.1-.3-.5-1.5.1-3.1 0 0 1-.3 3.2 1.2a11 11 0 0 1 5.8 0C17.5 5.6 18.5 6 18.5 6c.6 1.6.2 2.8.1 3.1a4.4 4.4 0 0 1 1.2 3c0 4.4-2.8 5.4-5.4 5.7a3 3 0 0 1 .9 2.3v3.3c0 .4.3.7.8.6A12 12 0 0 0 12 .3Z"></path>
</svg>
